<svg xmlns="http://www.w3.org/2000/svg" version="1.1" xmlns:xlink="http://www.w3.org/1999/xlink" xmlns:svgjs="http://svgjs.dev/svgjs" width="100%" height="100%" viewBox="0 0 1000 600"><rect width="1000" height="600" x="0" y="0" fill="#1f1717"/><g><rect width="333.3333333333333" height="333.3333333333333" rx="13.333333333333334" ry="13.333333333333334" y="357.74275441492097" fill="#fcf5ed" transform="matrix(0.372555423379769,0,0,0.372555423379769,0,104.62841660516769)" x="335.52053833007807"/><path d="M418.8720442952055 569.1384781887346L418.8720442952055 569.1384781887346Q415.50860617788624 569.1384781887346 413.73345828263444 567.2231870385945Q411.9583103873826 565.2845386793064 411.9583103873826 561.9211005619871L411.9583103873826 561.9211005619871L411.9583103873826 456.46330125854064Q411.9583103873826 452.93636267718506 413.8268871192266 451.18457199108127Q415.6721066419226 449.4094240958295 419.0355447592418 449.4094240958295L419.0355447592418 449.4094240958295L458.8829435658154 449.4094240958295Q477.8957118123283 449.4094240958295 488.1495266283223 458.75230775504957Q498.4033414443163 468.07183420512155 498.4033414443163 485.052525255754L498.4033414443163 485.052525255754Q498.4033414443163 501.86971584235016 488.1495266283223 511.30602833816243Q477.8957118123283 520.7189836248267 458.8829435658154 520.7189836248267L458.8829435658154 520.7189836248267L425.7624209938803 520.7189836248267L425.7624209938803 561.9211005619871Q425.7624209938803 565.2845386793064 424.08070193522065 567.2231870385945Q422.39898287656104 569.1384781887346 418.8720442952055 569.1384781887346ZM425.7624209938803 460.8544565783741L425.7624209938803 509.11045067824574L457.2012245071558 509.11045067824574Q470.81847744046905 509.11045067824574 477.8022829757361 502.9675046723085Q484.7860885110031 496.82455866637133 484.7860885110031 485.052525255754L484.7860885110031 485.052525255754Q484.7860885110031 473.11699138110043 477.8022829757361 466.9740453751632Q470.81847744046905 460.8544565783741 457.2012245071558 460.8544565783741L457.2012245071558 460.8544565783741L425.7624209938803 460.8544565783741ZM521.6204073374781 599.4094212446078L521.6204073374781 599.4094212446078Q518.2569692201589 599.4094212446078 516.5752501614993 597.6576305585038Q514.8935311028397 595.8824826632522 514.8935311028397 592.519044545933L514.8935311028397 592.519044545933L514.8935311028397 491.96625916357686Q514.8935311028397 488.60282104625765 516.5752501614993 486.82767315100585Q518.2569692201589 485.052525255754 521.4569068734418 485.052525255754L521.4569068734418 485.052525255754Q524.820344990761 485.052525255754 526.572135676865 486.82767315100585Q528.3472835721166 488.60282104625765 528.3472835721166 491.96625916357686L528.3472835721166 491.96625916357686L528.3472835721166 507.9425902208432L526.5020640494206 505.58351209689016Q529.1881431014465 495.9836991370415 537.1763086300796 490.35461173236143Q545.1644741587129 484.72552432768134 556.2591485040366 484.72552432768134L556.2591485040366 484.72552432768134Q567.1903223853242 484.72552432768134 575.3419883779936 489.86411034025235Q583.4936543706631 494.97933914367536 587.9548813179408 504.48572326693176Q592.4161082652183 513.9921073901883 592.4161082652183 527.0955017222443L592.4161082652183 527.0955017222443Q592.4161082652183 540.0587527994121 587.9548813179408 549.5651369226687Q583.4936543706631 559.0481638367769 575.4354172145859 564.2801786859402Q567.3538228493605 569.4888363259554 556.2591485040366 569.4888363259554L556.2591485040366 569.4888363259554Q545.1644741587129 569.4888363259554 537.2463802575237 563.8597489212752Q529.3516435654828 558.2073043074472 526.5020640494206 548.7943490207829L526.5020640494206 548.7943490207829L528.5107840361529 548.7943490207829L528.5107840361529 592.519044545933Q528.5107840361529 595.8824826632522 526.665564513457 597.6576305585038Q524.820344990761 599.4094212446078 521.6204073374781 599.4094212446078ZM553.4095689879746 558.5576624446679L553.4095689879746 558.5576624446679Q561.1408052159791 558.5576624446679 566.7698926206592 554.843866190128Q572.3989800253394 551.153427144736 575.50548884203 544.0995499820249Q578.6353548678687 537.0223156101656 578.6353548678687 527.0955017222443L578.6353548678687 527.0955017222443Q578.6353548678687 511.79652973027146 571.815049796638 503.7382925741942Q564.9947447254074 495.6566982089688 553.4095689879746 495.6566982089688L553.4095689879746 495.6566982089688Q545.8418332240062 495.6566982089688 540.1193169827341 499.27706562691657Q534.3968007414617 502.8974330448644 531.290291924771 509.8578813709833Q528.1837831080804 516.8416869062503 528.1837831080804 527.0955017222443L528.1837831080804 527.0955017222443Q528.1837831080804 542.2309732501808 535.074159806755 550.4059964519984Q541.9645365054298 558.5576624446679 553.4095689879746 558.5576624446679Z " fill="#" transform="matrix(0.372555423379769,0,0,0.372555423379769,0,104.62841660516769)"/><path d="M758.8966353678665 570.0330333025868L758.8966353678665 570.0330333025868Q755.6325930886729 570.0330333025868 753.9099041079875 568.1743425602681Q752.187215127302 566.2929848576775 752.187215127302 563.028942578484L752.187215127302 563.028942578484L752.187215127302 460.6876169496053Q752.187215127302 457.26490594850657 754.0005719490763 455.5648839280933Q755.7912618105782 453.84219494740785 759.0553040897718 453.84219494740785L759.0553040897718 453.84219494740785L797.7251383141055 453.84219494740785Q816.1760439756575 453.84219494740785 826.1268395351432 462.9089790562786Q836.0776350946288 471.95309620487717 836.0776350946288 488.4319763227498L836.0776350946288 488.4319763227498Q836.0776350946288 504.7521877187172 826.1268395351432 513.9096396686766Q816.1760439756575 523.0444246583639 797.7251383141055 523.0444246583639L797.7251383141055 523.0444246583639L765.5833886481586 523.0444246583639L765.5833886481586 563.028942578484Q765.5833886481586 566.2929848576775 763.9513675085619 568.1743425602681Q762.3193463689652 570.0330333025868 758.8966353678665 570.0330333025868ZM765.5833886481586 464.94900548077453L765.5833886481586 511.77894540309205L796.0931171745088 511.77894540309205Q809.307955013188 511.77894540309205 816.0853761345688 505.8175348515095Q822.8627972559497 499.856124299927 822.8627972559497 488.4319763227498L822.8627972559497 488.4319763227498Q822.8627972559497 476.8491596236674 816.0853761345688 470.88774907208483Q809.307955013188 464.94900548077453 796.0931171745088 464.94900548077453L796.0931171745088 464.94900548077453L765.5833886481586 464.94900548077453ZM885.8542798523293 570.3730377066693L885.8542798523293 570.3730377066693Q873.2967838615433 570.3730377066693 864.2299997526726 565.3863064467905Q855.185882604074 560.4222421471836 850.199151344195 551.2647901972242Q845.2124200843161 542.1300052075369 845.2124200843161 529.4138404948458L845.2124200843161 529.4138404948458Q845.2124200843161 516.9923462656927 850.1084835031064 507.7895603951889Q855.0045469218966 498.5641075644129 863.5726579047795 493.32803974154Q872.1407688876624 488.11463887893933 883.4062481429343 488.11463887893933L883.4062481429343 488.11463887893933Q891.4076851190129 488.11463887893933 897.7771009554943 490.8120071513284Q904.1465167919761 493.5093754237175 908.6345749258672 498.5641075644129Q913.1226330597582 503.6188397051083 915.4799969280647 510.8042661113884Q917.837360796371 517.9896925176686 917.837360796371 526.9658087854506L917.837360796371 526.9658087854506Q917.837360796371 529.5725092167509 916.3866753389517 530.7965250714485Q914.9133229212601 532.020540926146 912.1252868077823 532.020540926146L912.1252868077823 532.020540926146L855.3445513259793 532.020540926146L855.3445513259793 523.3617621021745L909.0425802107665 523.3617621021745L906.4132128191937 525.4924563677591Q906.4132128191937 516.6750088218823 903.8065123878936 510.5549295483945Q901.1998119565932 504.4348502749067 896.2130806967142 501.17080799571323Q891.2490163971075 497.90676571651977 883.746252547017 497.90676571651977L883.746252547017 497.90676571651977Q875.4048111668559 497.90676571651977 869.6247362974508 501.73748200251765Q863.8219944677734 505.5681982885156 860.8979565926626 512.3456194098965Q857.9512517572797 519.1230405312774 857.9512517572797 528.0991567990594L857.9512517572797 528.0991567990594L857.9512517572797 529.073836090763Q857.9512517572797 544.1020307512163 865.2046790443761 551.9221320451175Q872.4807732917451 559.7649002992905 885.8542798523293 559.7649002992905L885.8542798523293 559.7649002992905Q891.4076851190129 559.7649002992905 896.8704225446073 558.2915478815991Q902.333159970202 556.8181954639076 907.5692277930749 553.3954844628088L907.5692277930749 553.3954844628088Q909.8585907805647 551.9221320451175 911.7172815228834 552.012799886206Q913.5986392254739 552.0808007670225 914.7546541993551 553.1461478998149Q915.8880022129639 554.2114950326072 916.2960074978629 555.7528483311153Q916.7040127827621 557.3168685898954 915.9786700540525 559.1075584513974Q915.2306603650708 560.8982483128993 913.1226330597582 562.2129320086857L913.1226330597582 562.2129320086857Q907.7278965149802 566.1343161357722 900.3838013867947 568.2423434410848Q893.0397062586095 570.3730377066693 885.8542798523293 570.3730377066693ZM943.4736928642031 570.0330333025868L943.4736928642031 570.0330333025868Q940.2096505850096 570.0330333025868 938.577629445413 568.2423434410848Q936.9456083058161 566.4516535795829 936.9456083058161 563.1876113003893L936.9456083058161 563.1876113003893L936.9456083058161 495.1413965633142Q936.9456083058161 491.8773542841207 938.577629445413 490.15466530343525Q940.2096505850096 488.4319763227498 943.3150241422978 488.4319763227498L943.3150241422978 488.4319763227498Q946.3977307393139 488.4319763227498 948.1204197199994 490.15466530343525Q949.8431087006849 491.8773542841207 949.8431087006849 495.1413965633142L949.8431087006849 495.1413965633142L949.8431087006849 509.1722449717917L948.0297518789106 507.2002194281123Q951.4751298402815 497.7480969946145 959.227230253366 492.92003445664085Q966.9793306664507 488.11463887893933 977.0887949478414 488.11463887893933L977.0887949478414 488.11463887893933Q986.5635843416115 488.11463887893933 992.8423323370044 491.53734988003805Q999.1210803323974 494.96006088113677 1002.2264538896856 501.8961507244229Q1005.331827446974 508.83224056770905 1005.331827446974 519.4403779750878L1005.331827446974 519.4403779750878L1005.331827446974 563.1876113003893Q1005.331827446974 566.4516535795829 1003.6091384662885 568.2423434410848Q1001.8864494856031 570.0330333025868 998.803742888587 570.0330333025868L998.803742888587 570.0330333025868Q995.5397006093934 570.0330333025868 993.817011628708 568.2423434410848Q992.0943226480225 566.4516535795829 992.0943226480225 563.1876113003893L992.0943226480225 563.1876113003893L992.0943226480225 520.2563885448862Q992.0943226480225 509.1722449717917 987.787600196309 504.02684499000753Q983.4582107843233 498.88144500822335 973.9834213905532 498.88144500822335L973.9834213905532 498.88144500822335Q963.057946539364 498.88144500822335 956.5978628617935 505.6588661296043Q950.1604461444953 512.4362872509852 950.1604461444953 523.7017665062572L950.1604461444953 523.7017665062572L950.1604461444953 563.1876113003893Q950.1604461444953 570.0330333025868 943.4736928642031 570.0330333025868ZM945.4230514476104 473.1091111787582L945.4230514476104 473.1091111787582Q943.7910303080135 473.1091111787582 942.7256831752212 471.95309620487717Q941.6830030027012 470.81974819126833 942.1590091684169 468.53038520377845L942.1590091684169 468.53038520377845Q942.81635101631 464.60900107669187 944.1310347120963 461.3449587974984Q945.4230514476104 458.0809165183049 947.5537457131949 455.6328848089098Q949.6617730185075 453.1848530995147 952.5178100128018 451.8021685229119Q955.3738470070961 450.41948394630913 959.1365624122774 450.41948394630913L959.1365624122774 450.41948394630913Q963.2166152612691 450.41948394630913 966.2313209774687 452.3008416488998Q969.2460266936683 454.1595323912183 971.9433949660573 456.5395632197969Q974.6407632384463 458.89692708810327 977.2474636697467 460.8689526317827Q979.8541641010471 462.8183112151899 982.80086893643 462.8183112151899L982.80086893643 462.8183112151899Q986.5635843416115 462.8183112151899 989.0796169318231 459.9622742208956Q991.6183164823068 457.1062372266013 992.4343270521052 452.36884252971635L992.4343270521052 452.36884252971635Q992.7516644959159 450.7368213901196 993.817011628708 450.0114786614099Q994.8823587615003 449.2634689724281 996.6730486230023 449.4448046546055L996.6730486230023 449.4448046546055Q998.3050697625991 449.4448046546055 999.3704168953915 450.57815266821433Q1000.4357640281836 451.71150068182317 999.9370909021958 454.00086366931305L999.9370909021958 454.00086366931305Q999.1210803323974 459.0555958100085 996.9223851859964 463.13564865900037Q994.7236900395952 467.2157015079922 991.2783120782243 469.6637332173873Q987.8556010771255 472.1117649267824 982.9595376583353 472.1117649267824L982.9595376583353 472.1117649267824Q978.8794848093434 472.1117649267824 975.864779093144 470.2530741844639Q972.8500733769444 468.37171648187325 970.1527051045554 465.9236847724781Q967.4553368321664 463.47565306308303 964.848636400866 461.5942953604923Q962.2419359695656 459.71293765790165 959.2952311341827 459.71293765790165L959.2952311341827 459.71293765790165Q955.5551826892735 459.71293765790165 953.1071509798784 462.50097377137945Q950.6591192704831 465.266342924585 949.6617730185075 470.1624063433752L949.6617730185075 470.1624063433752Q949.3444355746968 471.6357587610667 948.2790884419047 472.4517693308651Q947.2137413091124 473.26777990066347 945.4230514476104 473.1091111787582ZM1057.7151726359748 570.3730377066693L1057.7151726359748 570.3730377066693Q1048.0817145202996 570.3730377066693 1041.8029665249064 566.859658864482Q1035.5242185295137 563.3462800222945 1032.3281771311367 556.3421892981919Q1029.1548026930318 549.315431613817 1029.1548026930318 538.8659629283434L1029.1548026930318 538.8659629283434L1029.1548026930318 495.1413965633142Q1029.1548026930318 491.6960186019433 1030.854824713445 490.06399746234655Q1032.5775136941306 488.4319763227498 1035.6828872514188 488.4319763227498L1035.6828872514188 488.4319763227498Q1038.9469295306121 488.4319763227498 1040.6469515510257 490.06399746234655Q1042.369640531711 491.6960186019433 1042.369640531711 495.1413965633142L1042.369640531711 495.1413965633142L1042.369640531711 538.7072942064383Q1042.369640531711 549.1567628919117 1046.6990299436966 554.3021628736959Q1051.0284193556827 559.424895895208 1060.3218730672752 559.424895895208L1060.3218730672752 559.424895895208Q1070.4313373486661 559.424895895208 1076.8007531851476 552.5794738930106Q1083.1701690216296 545.7340518908131 1083.1701690216296 534.6272413574463L1083.1701690216296 534.6272413574463L1083.1701690216296 495.1413965633142Q1083.1701690216296 491.6960186019433 1084.8928580023148 490.06399746234655Q1086.5928800227284 488.4319763227498 1089.8569223019217 488.4319763227498L1089.8569223019217 488.4319763227498Q1092.96229585921 488.4319763227498 1094.6849848398956 490.06399746234655Q1096.3850068603087 491.6960186019433 1096.3850068603087 495.1413965633142L1096.3850068603087 495.1413965633142L1096.3850068603087 563.1876113003893Q1096.3850068603087 570.0330333025868 1090.0155910238268 570.0330333025868L1090.0155910238268 570.0330333025868Q1086.9328844268107 570.0330333025868 1085.2101954461255 568.2423434410848Q1083.4875064654398 566.4516535795829 1083.4875064654398 563.1876113003893L1083.4875064654398 563.1876113003893L1083.4875064654398 548.3407523221134L1085.6182007310244 550.6301153096033Q1082.3541584518312 560.2409064650062 1074.9193954825569 565.3183055659739Q1067.5072994735551 570.3730377066693 1057.7151726359748 570.3730377066693ZM1156.9284577472931 570.3730377066693L1156.9284577472931 570.3730377066693Q1144.3709617565073 570.3730377066693 1135.3041776476366 565.3863064467905Q1126.260060499038 560.4222421471836 1121.273329239159 551.2647901972242Q1116.3092649395521 542.1300052075369 1116.3092649395521 529.4138404948458L1116.3092649395521 529.4138404948458Q1116.3092649395521 516.9923462656927 1121.2053283583423 507.7895603951889Q1126.1013917771324 498.5641075644129 1134.6695027600153 493.32803974154Q1143.2376137428982 488.11463887893933 1154.4804260378983 488.11463887893933L1154.4804260378983 488.11463887893933Q1162.4818630139766 488.11463887893933 1168.8512788504581 490.8120071513284Q1175.22069468694 493.5093754237175 1179.7087528208308 498.5641075644129Q1184.196810954722 503.6188397051083 1186.5541748230285 510.8042661113884Q1188.934205651607 517.9896925176686 1188.934205651607 526.9658087854506L1188.934205651607 526.9658087854506Q1188.934205651607 529.5725092167509 1187.4608532339153 530.7965250714485Q1185.987500816224 532.020540926146 1183.2221316630184 532.020540926146L1183.2221316630184 532.020540926146L1126.418729220943 532.020540926146L1126.418729220943 523.3617621021745L1180.1167581057302 523.3617621021745L1177.5100576744298 525.4924563677591Q1177.5100576744298 516.6750088218823 1174.8806902828574 510.5549295483945Q1172.273989851557 504.4348502749067 1167.30992555195 501.17080799571323Q1162.323194292071 497.90676571651977 1154.8204304419805 497.90676571651977L1154.8204304419805 497.90676571651977Q1146.501656022092 497.90676571651977 1140.6989141924146 501.73748200251765Q1134.8961723627372 505.5681982885156 1131.9721344876266 512.3456194098965Q1129.0254296522435 519.1230405312774 1129.0254296522435 528.0991567990594L1129.0254296522435 528.0991567990594L1129.0254296522435 529.073836090763Q1129.0254296522435 544.1020307512163 1136.3015238996122 551.9221320451175Q1143.5549511867089 559.7649002992905 1156.9284577472931 559.7649002992905L1156.9284577472931 559.7649002992905Q1162.4818630139766 559.7649002992905 1167.9446004395713 558.2915478815991Q1173.4300048254381 556.8181954639076 1178.6434056880385 553.3954844628088L1178.6434056880385 553.3954844628088Q1180.9327686755287 551.9221320451175 1182.814126378119 552.012799886206Q1184.6728171204377 552.0808007670225 1185.8288320943188 553.1461478998149Q1186.9621801079275 554.2114950326072 1187.370185392827 555.7528483311153Q1187.778190677726 557.3168685898954 1187.0528479490163 559.1075584513974Q1186.3048382600346 560.8982483128993 1184.196810954722 562.2129320086857L1184.196810954722 562.2129320086857Q1178.802074409944 566.1343161357722 1171.4579792817585 568.2423434410848Q1164.1138841535735 570.3730377066693 1156.9284577472931 570.3730377066693ZM1232.1827658509205 570.3730377066693L1232.1827658509205 570.3730377066693Q1220.4186134696606 570.3730377066693 1214.2305333153563 563.1876113003893Q1208.01978620078 556.0021848941092 1208.01978620078 542.6286783335248L1208.01978620078 542.6286783335248L1208.01978620078 459.39560021409113Q1208.01978620078 456.1315579348977 1209.6518073403768 454.40886895421227Q1211.2838284799736 452.708846933799 1214.547870759167 452.708846933799L1214.547870759167 452.708846933799Q1217.6532443164551 452.708846933799 1219.443934177957 454.40886895421227Q1221.234624039459 456.1315579348977 1221.234624039459 459.39560021409113L1221.234624039459 459.39560021409113L1221.234624039459 541.6539990418212Q1221.234624039459 550.4487796274259 1224.7480028816467 554.7781690394116Q1228.261381723834 559.1075584513974 1235.1068037260316 559.1075584513974L1235.1068037260316 559.1075584513974Q1236.580156143723 559.1075584513974 1237.713504157332 558.9488897294923Q1238.8695191312127 558.790221007587 1240.0028671448217 558.790221007587L1240.0028671448217 558.790221007587Q1241.7935570063237 558.6088853254096 1242.5415666953054 559.6062315773854Q1243.266909424015 560.5809108690889 1243.266909424015 563.5049487441997L1243.266909424015 563.5049487441997Q1243.266909424015 566.4516535795829 1241.9748926885009 567.9250059972742Q1240.6602089927146 569.3983584149657 1237.713504157332 569.8743645806815L1237.713504157332 569.8743645806815Q1236.4214874218178 570.0330333025868 1234.948135004126 570.2143689847642Q1233.4747825864347 570.3730377066693 1232.1827658509205 570.3730377066693ZM1281.3020687607277 570.3730377066693L1281.3020687607277 570.3730377066693Q1273.1419630627443 570.3730377066693 1266.681879385174 567.1769963082925Q1260.2444626678757 564.0036218701877 1256.4817472626942 558.4502166035043Q1252.7416988177852 552.896811336821 1252.7416988177852 546.0513893346235L1252.7416988177852 546.0513893346235Q1252.7416988177852 537.2339417887467 1257.2297569516759 532.1792096480513Q1261.717815085567 527.1244775073558 1272.076615929952 524.9937832417711Q1282.4354167743368 522.8857559364587 1300.387649309901 522.8857559364587L1300.387649309901 522.8857559364587L1307.731744438086 522.8857559364587L1307.731744438086 531.5218678001581L1300.546318031806 531.5218678001581Q1287.331480193127 531.5218678001581 1279.7380485019476 532.7458836548557Q1272.1672837710407 533.9698995095532 1269.1299110945688 536.9166043449363Q1266.1152053783694 539.8406422200471 1266.1152053783694 545.2353787648251L1266.1152053783694 545.2353787648251Q1266.1152053783694 551.9221320451175 1270.7619322341657 556.1608536160145Q1275.431326050234 560.4222421471836 1283.4100960660403 560.4222421471836L1283.4100960660403 560.4222421471836Q1289.9381806244273 560.4222421471836 1294.9249118843063 557.3168685898954Q1299.9116431441853 554.2114950326072 1302.7676801384796 548.8167584878291Q1305.623717132774 543.4446889033231 1305.623717132774 536.4179312189483L1305.623717132774 536.4179312189483L1305.623717132774 517.8083568354912Q1305.623717132774 507.6988925541002 1301.5436642837822 503.21083442020915Q1297.46361143479 498.72277628631815 1288.1474907629254 498.72277628631815L1288.1474907629254 498.72277628631815Q1282.4354167743368 498.72277628631815 1276.7233427857482 500.19612870400965Q1271.0112687971596 501.66948112170115 1264.6418529606776 504.9335234008946L1264.6418529606776 504.9335234008946Q1262.37515693346 506.06687141450345 1260.7431357938635 505.6588661296043Q1259.1111146542667 505.2508608447051 1258.113768402291 503.93617714891883Q1257.1390891105875 502.64416041340473 1256.980420388682 500.92147143271933Q1256.821751666777 499.221449412306 1257.7057631173916 497.5894282727093Q1258.6124415282789 495.95740713311255 1260.561800111686 494.96006088113677L1260.561800111686 494.96006088113677Q1267.7472265179663 491.3786811581328 1274.7739842023411 489.74666001853603Q1281.7780749264434 488.11463887893933 1288.1474907629254 488.11463887893933L1288.1474907629254 488.11463887893933Q1298.4382907264935 488.11463887893933 1305.1250440067856 491.4693489992215Q1311.8117972870782 494.8013921592315 1315.0758395662715 501.57881328061245Q1318.3398818454648 508.35623440199333 1318.3398818454648 518.9643718093721L1318.3398818454648 518.9643718093721L1318.3398818454648 563.1876113003893Q1318.3398818454648 566.4516535795829 1316.7985285469572 568.2423434410848Q1315.2345082881766 570.0330333025868 1312.310470413066 570.0330333025868L1312.310470413066 570.0330333025868Q1309.2050968557778 570.0330333025868 1307.573075716181 568.2423434410848Q1305.941054576584 566.4516535795829 1305.941054576584 563.1876113003893L1305.941054576584 563.1876113003893L1305.941054576584 550.4487796274259L1307.4144069942759 550.4487796274259Q1306.0997232984896 556.6595267420023 1302.4276757343969 561.0569170348047Q1298.7556281703041 565.4769742878791 1293.3835585857983 567.9250059972742Q1287.9888220410203 570.3730377066693 1281.3020687607277 570.3730377066693ZM1369.589879020857 570.3730377066693L1369.589879020857 570.3730377066693Q1362.2457838926716 570.3730377066693 1354.8110209233978 568.5823478451673Q1347.398924914396 566.7689910233933 1341.029509077914 562.3716007305909L1341.029509077914 562.3716007305909Q1339.3974879383172 561.2382527169821 1338.7401460904243 559.6742324582019Q1338.082804242531 558.1328791596939 1338.332140805525 556.5688589009137Q1338.5814773685188 555.0275056024057 1339.6468245013111 553.8941575887968Q1340.7121716341035 552.7381426149157 1342.2535249326115 552.4888060519218Q1343.7948782311196 552.2621364491999 1345.7669037747992 553.2368157409037L1345.7669037747992 553.2368157409037Q1352.1363196112807 557.1581998679902 1358.075063202591 558.6995531664983Q1364.0364737541736 560.2409064650062 1369.9072164646677 560.2409064650062L1369.9072164646677 560.2409064650062Q1379.2233371365323 560.2409064650062 1383.9607318334174 556.8181954639076Q1388.67545957003 553.3954844628088 1388.67545957003 547.5247417523151L1388.67545957003 547.5247417523151Q1388.67545957003 542.9460157773353 1385.5927529730138 540.2486475049462Q1382.4873794157256 537.5739461928295 1375.8006261354335 536.1005937751379L1375.8006261354335 536.1005937751379L1360.9311001968854 532.8365514959444Q1350.6629671935893 530.7058572303597 1345.6762359337104 525.4924563677591Q1340.7121716341035 520.2563885448862 1340.7121716341035 511.93761412499725L1340.7121716341035 511.93761412499725Q1340.7121716341035 504.59351899681195 1344.5428879201013 499.28945029312257Q1348.3736042060996 493.9853815894332 1355.4003618904744 491.06134371432233Q1362.4044526145772 488.11463887893933 1371.7205732864418 488.11463887893933L1371.7205732864418 488.11463887893933Q1378.8833327324496 488.11463887893933 1385.34341641002 489.99599658153Q1391.7808331273181 491.8773542841207 1397.016900950191 495.95740713311255L1397.016900950191 495.95740713311255Q1398.648922089788 497.0907551467214 1399.2155960965924 498.63210844522945Q1399.7822701033965 500.19612870400965 1399.3742648184975 501.73748200251765Q1398.9662595335985 503.30150226129786 1397.8329115199895 504.344182433818Q1396.6768965461083 505.40952956661033 1395.044875406512 505.5681982885156Q1393.412854266915 505.749533970693 1391.622164405413 504.59351899681195L1391.622164405413 504.59351899681195Q1386.726100986623 501.3294767176185 1381.6713688459276 499.78812341911043Q1376.616636705232 498.22410316033023 1371.7205732864418 498.22410316033023L1371.7205732864418 498.22410316033023Q1362.5631213364823 498.22410316033023 1357.8483935998693 501.82814984360635Q1353.1109989029846 505.40952956661033 1353.1109989029846 511.28027227710413L1353.1109989029846 511.28027227710413Q1353.1109989029846 515.8589982520839 1356.0350367780952 518.8057030874669Q1358.9817416134783 521.7297409625777 1365.1924887280547 523.0444246583639L1365.1924887280547 523.0444246583639L1380.0393477063308 526.1497982156523Q1390.6474851137095 528.4164942428699 1395.9515538173987 533.4032255027489Q1401.2556225210883 538.3899567626277 1401.2556225210883 546.867399904422L1401.2556225210883 546.867399904422Q1401.2556225210883 557.6342060337059 1392.5968436971166 564.0036218701877Q1383.9607318334174 570.3730377066693 1369.589879020857 570.3730377066693ZM1469.9591791060566 599.409413815328L1469.9591791060566 599.409413815328Q1466.6951368268628 599.409413815328 1465.0631156872664 597.7093917949148Q1463.4310945476695 595.9867028142294 1463.4310945476695 592.7226605350359L1463.4310945476695 592.7226605350359L1463.4310945476695 495.1413965633142Q1463.4310945476695 491.8773542841207 1465.0631156872664 490.15466530343525Q1466.6951368268628 488.4319763227498 1469.8005103841515 488.4319763227498L1469.8005103841515 488.4319763227498Q1473.0645526633448 488.4319763227498 1474.764574683758 490.15466530343525Q1476.4872636644436 491.8773542841207 1476.4872636644436 495.1413965633142L1476.4872636644436 495.1413965633142L1476.4872636644436 510.6455973894832L1474.6965738029417 508.35623440199333Q1477.303274234242 499.0401137301286 1485.055374647326 493.57737630453397Q1492.807475060411 488.11463887893933 1503.5742811896948 488.11463887893933L1503.5742811896948 488.11463887893933Q1514.1824185970736 488.11463887893933 1522.0931877320636 493.10137013881825Q1530.0266238273252 498.06543443842503 1534.3333462790392 507.290887269201Q1538.6627356910249 516.516340099977 1538.6627356910249 529.2325048126683L1538.6627356910249 529.2325048126683Q1538.6627356910249 541.8126677637265 1534.3333462790392 551.0381205945025Q1530.0266238273252 560.2409064650062 1522.183855573152 565.3183055659739Q1514.3410873189787 570.3730377066693 1503.5742811896948 570.3730377066693L1503.5742811896948 570.3730377066693Q1492.807475060411 570.3730377066693 1485.1460424884153 564.9103002810748Q1477.4619429561471 559.424895895208 1474.6965738029417 550.2901109055206L1474.6965738029417 550.2901109055206L1476.6459323863487 550.2901109055206L1476.6459323863487 592.7226605350359Q1476.6459323863487 595.9867028142294 1474.8552425248467 597.7093917949148Q1473.0645526633448 599.409413815328 1469.9591791060566 599.409413815328ZM1500.8089120364893 559.7649002992905L1500.8089120364893 559.7649002992905Q1508.31167588658 559.7649002992905 1513.7744133121746 556.1608536160145Q1519.2371507377693 552.5794738930106 1522.2745234142408 545.7340518908131Q1525.2892291304406 538.8659629283434 1525.2892291304406 529.2325048126683L1525.2892291304406 529.2325048126683Q1525.2892291304406 514.3856458343923 1518.6704767309648 506.5655445404913Q1512.0743912917615 498.72277628631815 1500.8089120364893 498.72277628631815L1500.8089120364893 498.72277628631815Q1493.4648169083039 498.72277628631815 1487.9114116416208 502.2361551285056Q1482.3580063749373 505.749533970693 1479.343300658738 512.5042881318018Q1476.328594942538 519.2817092531826 1476.328594942538 529.2325048126683L1476.328594942538 529.2325048126683Q1476.328594942538 543.9206950690389 1483.0153482228302 551.8541311643008Q1489.7021015031228 559.7649002992905 1500.8089120364893 559.7649002992905ZM1565.2737470505608 570.0330333025868L1565.2737470505608 570.0330333025868Q1562.009704771367 570.0330333025868 1560.2870157906814 568.2423434410848Q1558.5869937702682 566.4516535795829 1558.5869937702682 563.1876113003893L1558.5869937702682 563.1876113003893L1558.5869937702682 495.1413965633142Q1558.5869937702682 491.8773542841207 1560.219014909865 490.15466530343525Q1561.8510360494615 488.4319763227498 1564.9337426464776 488.4319763227498L1564.9337426464776 488.4319763227498Q1568.0391162037663 488.4319763227498 1569.7618051844515 490.15466530343525Q1571.4618272048647 491.8773542841207 1571.4618272048647 495.1413965633142L1571.4618272048647 495.1413965633142L1571.4618272048647 508.35623440199333L1569.8298060652683 508.35623440199333Q1572.4591734568403 498.72277628631815 1579.8032685850258 493.5093754237175Q1587.1473637132112 488.2733076008446 1597.9141698424955 487.9559701570341L1597.9141698424955 487.9559701570341Q1600.3622015518904 487.7973014351289 1601.8355539695817 489.0213172898264Q1603.286239427001 490.24533314452395 1603.4675751091786 493.1693710196348L1603.4675751091786 493.1693710196348Q1603.6262438310837 495.95740713311255 1602.1528914133924 497.5894282727093Q1600.679538995701 499.221449412306 1597.5741654384128 499.5387868561165L1597.5741654384128 499.5387868561165L1594.967465007112 499.856124299927Q1583.8833214340175 500.8534705519028 1577.921910882435 506.97354982539053Q1571.960500330853 513.0936290988783 1571.960500330853 523.7017665062572L1571.960500330853 523.7017665062572L1571.960500330853 563.1876113003893Q1571.960500330853 566.4516535795829 1570.2378113501672 568.2423434410848Q1568.537789329754 570.0330333025868 1565.2737470505608 570.0330333025868ZM1648.9828313357098 570.3730377066693L1648.9828313357098 570.3730377066693Q1637.4000146366275 570.3730377066693 1628.9225714948334 565.3183055659739Q1620.4224613927668 560.2409064650062 1615.7757345369705 551.0381205945025Q1611.1290076811742 541.8126677637265 1611.1290076811742 529.2325048126683L1611.1290076811742 529.2325048126683Q1611.1290076811742 519.7803823791705 1613.7357081124746 512.1869506879912Q1616.342408543775 504.59351899681195 1621.4198076447428 499.221449412306Q1626.474539785438 493.82671286752793 1633.410629628724 490.97067587323363Q1640.3467194720106 488.11463887893933 1648.9828313357098 488.11463887893933L1648.9828313357098 488.11463887893933Q1660.5883149950641 488.11463887893933 1669.0657581368587 493.1693710196348Q1677.5432012786528 498.22410316033023 1682.212595094721 507.44955599110625Q1686.8593219505174 516.6750088218823 1686.8593219505174 529.2325048126683L1686.8593219505174 529.2325048126683Q1686.8593219505174 538.7072942064383 1684.252621519217 546.2100580565289Q1681.6232541276445 553.7128219066194 1676.5685219869492 559.1982262924862Q1671.5137898462535 564.6609637180808 1664.5777000029675 567.5170007123751Q1657.6416101596815 570.3730377066693 1648.9828313357098 570.3730377066693ZM1648.9828313357098 559.7649002992905L1648.9828313357098 559.7649002992905Q1656.3269264638952 559.7649002992905 1661.8803317305783 556.1608536160145Q1667.4337369972618 552.5794738930106 1670.4484427134612 545.7340518908131Q1673.463148429661 538.8659629283434 1673.463148429661 529.2325048126683L1673.463148429661 529.2325048126683Q1673.463148429661 514.3856458343923 1666.8670629904573 506.5655445404913Q1660.2483105909819 498.72277628631815 1648.9828313357098 498.72277628631815L1648.9828313357098 498.72277628631815Q1641.4800674856192 498.72277628631815 1636.0173300600245 502.2361551285056Q1630.5545926344298 505.749533970693 1627.5398869182304 512.5042881318018Q1624.502514241759 519.2817092531826 1624.502514241759 529.2325048126683L1624.502514241759 529.2325048126683Q1624.502514241759 543.9206950690389 1631.2119344823232 551.8541311643008Q1637.8986877626153 559.7649002992905 1648.9828313357098 559.7649002992905ZM1713.2889976278757 599.409413815328L1713.2889976278757 599.409413815328Q1710.0249553486824 599.409413815328 1708.3929342090855 597.7093917949148Q1706.7609130694887 595.9867028142294 1706.7609130694887 592.7226605350359L1706.7609130694887 592.7226605350359L1706.7609130694887 495.1413965633142Q1706.7609130694887 491.8773542841207 1708.3929342090855 490.15466530343525Q1710.0249553486824 488.4319763227498 1713.1303289059706 488.4319763227498L1713.1303289059706 488.4319763227498Q1716.394371185164 488.4319763227498 1718.1170601658496 490.15466530343525Q1719.8170821862627 491.8773542841207 1719.8170821862627 495.1413965633142L1719.8170821862627 495.1413965633142L1719.8170821862627 510.6455973894832L1718.0263923247608 508.35623440199333Q1720.6330927560612 499.0401137301286 1728.3851931691456 493.57737630453397Q1736.13729358223 488.11463887893933 1746.904099711514 488.11463887893933L1746.904099711514 488.11463887893933Q1757.5122371188927 488.11463887893933 1765.4456732141548 493.10137013881825Q1773.3564423491448 498.06543443842503 1777.6858317611304 507.290887269201Q1781.992554212844 516.516340099977 1781.992554212844 529.2325048126683L1781.992554212844 529.2325048126683Q1781.992554212844 541.8126677637265 1777.6858317611304 551.0381205945025Q1773.3564423491448 560.2409064650062 1765.5136740949715 565.3183055659739Q1757.6935728010703 570.3730377066693 1746.904099711514 570.3730377066693L1746.904099711514 570.3730377066693Q1736.13729358223 570.3730377066693 1728.4758610102344 564.9103002810748Q1720.7917614779662 559.424895895208 1718.0263923247608 550.2901109055206L1718.0263923247608 550.2901109055206L1719.9757509081678 550.2901109055206L1719.9757509081678 592.7226605350359Q1719.9757509081678 595.9867028142294 1718.1850610466659 597.7093917949148Q1716.394371185164 599.409413815328 1713.2889976278757 599.409413815328ZM1744.1387305583085 559.7649002992905L1744.1387305583085 559.7649002992905Q1751.641494408399 559.7649002992905 1757.1042318339937 556.1608536160145Q1762.5896362198605 552.5794738930106 1765.6043419360599 545.7340518908131Q1768.6190476522597 538.8659629283434 1768.6190476522597 529.2325048126683L1768.6190476522597 529.2325048126683Q1768.6190476522597 514.3856458343923 1762.0002952527839 506.5655445404913Q1755.4042098135806 498.72277628631815 1744.1387305583085 498.72277628631815L1744.1387305583085 498.72277628631815Q1736.794635430123 498.72277628631815 1731.24123016344 502.2361551285056Q1725.6878248967564 505.749533970693 1722.673119180557 512.5042881318018Q1719.6584134643572 519.2817092531826 1719.6584134643572 529.2325048126683L1719.6584134643572 529.2325048126683Q1719.6584134643572 543.9206950690389 1726.3451667446498 551.8541311643008Q1733.0319200249419 559.7649002992905 1744.1387305583085 559.7649002992905ZM1808.4448968504744 569.7156958587761L1808.4448968504744 569.7156958587761Q1805.180854571281 569.7156958587761 1803.5488334316842 567.8343381561856Q1801.9168122920873 565.9529804535948 1801.9168122920873 562.5302694524962L1801.9168122920873 562.5302694524962L1801.9168122920873 495.77607145093515Q1801.9168122920873 492.35336044983643 1803.5488334316842 490.5626705883344Q1805.180854571281 488.77198072683245 1808.4448968504744 488.77198072683245L1808.4448968504744 488.77198072683245Q1811.5502704077626 488.77198072683245 1813.340960269265 490.5626705883344Q1815.1316501307665 492.35336044983643 1815.1316501307665 495.77607145093515L1815.1316501307665 495.77607145093515L1815.1316501307665 562.5302694524962Q1815.1316501307665 565.9529804535948 1813.4089611500813 567.8343381561856Q1811.7089391296681 569.7156958587761 1808.4448968504744 569.7156958587761ZM1808.4448968504744 470.4797437871857L1808.4448968504744 470.4797437871857Q1804.3648440014827 470.4797437871857 1802.0754810139929 468.28104864078455Q1799.7861180265031 466.08235349438337 1799.7861180265031 462.319638089202L1799.7861180265031 462.319638089202Q1799.7861180265031 458.42092092238755 1802.0754810139929 456.38089449789163Q1804.3648440014827 454.3408680733957 1808.4448968504744 454.3408680733957L1808.4448968504744 454.3408680733957Q1812.6836184213716 454.3408680733957 1814.8823135677726 456.38089449789163Q1817.081008714174 458.42092092238755 1817.081008714174 462.319638089202L1817.081008714174 462.319638089202Q1817.081008714174 466.08235349438337 1814.8823135677726 468.28104864078455Q1812.6836184213716 470.4797437871857 1808.4448968504744 470.4797437871857ZM1875.5164322958458 570.3730377066693L1875.5164322958458 570.3730377066693Q1862.95893630506 570.3730377066693 1853.8921521961893 565.3863064467905Q1844.8253680873186 560.4222421471836 1839.8613037877117 551.2647901972242Q1834.8745725278327 542.1300052075369 1834.8745725278327 529.4138404948458L1834.8745725278327 529.4138404948458Q1834.8745725278327 516.9923462656927 1839.7706359466229 507.7895603951889Q1844.666699365413 498.5641075644129 1853.234810348296 493.32803974154Q1861.8029213311788 488.11463887893933 1873.068400586451 488.11463887893933L1873.068400586451 488.11463887893933Q1881.0698375625293 488.11463887893933 1887.4392533990112 490.8120071513284Q1893.7860022752207 493.5093754237175 1898.2740604091118 498.5641075644129Q1902.7621185430025 503.6188397051083 1905.1421493715811 510.8042661113884Q1907.4995132398876 517.9896925176686 1907.4995132398876 526.9658087854506L1907.4995132398876 526.9658087854506Q1907.4995132398876 529.5725092167509 1906.0261608221958 530.7965250714485Q1904.5754753647766 532.020540926146 1901.787439251299 532.020540926146L1901.787439251299 532.020540926146L1845.0067037694957 532.020540926146L1845.0067037694957 523.3617621021745L1898.6820656940108 523.3617621021745L1896.0753652627104 525.4924563677591Q1896.0753652627104 516.6750088218823 1893.46866483141 510.5549295483945Q1890.8619644001096 504.4348502749067 1885.875233140231 501.17080799571323Q1880.9111688406242 497.90676571651977 1873.3857380302616 497.90676571651977L1873.3857380302616 497.90676571651977Q1865.0669636103726 497.90676571651977 1859.2868887409672 501.73748200251765Q1853.4841469112903 505.5681982885156 1850.5374420759072 512.3456194098965Q1847.6134042007961 519.1230405312774 1847.6134042007961 528.0991567990594L1847.6134042007961 528.0991567990594L1847.6134042007961 529.073836090763Q1847.6134042007961 544.1020307512163 1854.8668314878928 551.9221320451175Q1862.1429257352615 559.7649002992905 1875.5164322958458 559.7649002992905L1875.5164322958458 559.7649002992905Q1881.0698375625293 559.7649002992905 1886.532574988124 558.2915478815991Q1891.9953124137187 556.8181954639076 1897.2313802365916 553.3954844628088L1897.2313802365916 553.3954844628088Q1899.4980762638093 551.9221320451175 1901.3794339664 552.012799886206Q1903.2607916689908 552.0808007670225 1904.3941396825994 553.1461478998149Q1905.5501546564806 554.2114950326072 1905.9581599413796 555.7528483311153Q1906.366165226279 557.3168685898954 1905.6181555372968 559.1075584513974Q1904.8928128085872 560.8982483128993 1902.7621185430025 562.2129320086857L1902.7621185430025 562.2129320086857Q1897.3900489584967 566.1343161357722 1890.0459538303116 568.2423434410848Q1882.7018587021262 570.3730377066693 1875.5164322958458 570.3730377066693ZM1956.8001518318724 570.3730377066693L1956.8001518318724 570.3730377066693Q1946.1920144244937 570.3730377066693 1938.2585783292316 565.3183055659739Q1930.347809194242 560.2409064650062 1926.018419782256 551.0381205945025Q1921.7116973305428 541.8126677637265 1921.7116973305428 529.2325048126683L1921.7116973305428 529.2325048126683Q1921.7116973305428 516.516340099977 1926.018419782256 507.290887269201Q1930.347809194242 498.06543443842503 1938.2585783292316 493.10137013881825Q1946.1920144244937 488.11463887893933 1956.8001518318724 488.11463887893933L1956.8001518318724 488.11463887893933Q1967.5669579611567 488.11463887893933 1975.2283905331524 493.5093754237175Q1982.9124900654201 498.88144500822335 1985.5191904967205 508.01622999791067L1985.5191904967205 508.01622999791067L1983.7285006352186 508.01622999791067L1983.7285006352186 459.39560021409113Q1983.7285006352186 456.1315579348977 1985.4285226556322 454.40886895421227Q1987.1512116363174 452.708846933799 1990.4152539155107 452.708846933799L1990.4152539155107 452.708846933799Q1993.5206274727989 452.708846933799 1995.2206494932125 454.40886895421227Q1996.9433384738977 456.1315579348977 1996.9433384738977 459.39560021409113L1996.9433384738977 459.39560021409113L1996.9433384738977 563.1876113003893Q1996.9433384738977 566.4516535795829 1995.3113173343013 568.2423434410848Q1993.6792961947044 570.0330333025868 1990.4152539155107 570.0330333025868L1990.4152539155107 570.0330333025868Q1987.3098803582225 570.0330333025868 1985.5871913775372 568.2423434410848Q1983.8871693571236 566.4516535795829 1983.8871693571236 563.1876113003893L1983.8871693571236 563.1876113003893L1983.8871693571236 547.6834104742203L1985.677859218626 549.9727734617102Q1983.0711587873257 559.2662271733027 1975.3190583742407 564.819632439986Q1967.5669579611567 570.3730377066693 1956.8001518318724 570.3730377066693ZM1959.565520985078 559.7649002992905L1959.565520985078 559.7649002992905Q1966.9096161132634 559.7649002992905 1972.463021379947 556.1608536160145Q1978.01642664663 552.5794738930106 1981.0311323628298 545.7340518908131Q1984.0458380790292 538.8659629283434 1984.0458380790292 529.2325048126683L1984.0458380790292 529.2325048126683Q1984.0458380790292 514.3856458343923 1977.4270856795533 506.5655445404913Q1970.83100024035 498.72277628631815 1959.565520985078 498.72277628631815L1959.565520985078 498.72277628631815Q1952.0627571349874 498.72277628631815 1946.600019709393 502.2361551285056Q1941.1146153235259 505.749533970693 1938.0999096073265 512.5042881318018Q1935.085203891127 519.2817092531826 1935.085203891127 529.2325048126683L1935.085203891127 529.2325048126683Q1935.085203891127 543.9206950690389 1941.7719571714192 551.8541311643008Q1948.4587104517113 559.7649002992905 1959.565520985078 559.7649002992905ZM2046.7199832315982 570.3730377066693L2046.7199832315982 570.3730377066693Q2038.5598775336143 570.3730377066693 2032.099793856044 567.1769963082925Q2025.6623771387458 564.0036218701877 2021.8996617335647 558.4502166035043Q2018.1596132886552 552.896811336821 2018.1596132886552 546.0513893346235L2018.1596132886552 546.0513893346235Q2018.1596132886552 537.2339417887467 2022.6476714225464 532.1792096480513Q2027.1357295564376 527.1244775073558 2037.494530400822 524.9937832417711Q2047.8533312452073 522.8857559364587 2065.805563780771 522.8857559364587L2065.805563780771 522.8857559364587L2073.1496589089566 522.8857559364587L2073.1496589089566 531.5218678001581L2065.9642325026766 531.5218678001581Q2052.749394663997 531.5218678001581 2045.155962972818 532.7458836548557Q2037.5851982419108 533.9698995095532 2034.5478255654393 536.9166043449363Q2031.5331198492395 539.8406422200471 2031.5331198492395 545.2353787648251L2031.5331198492395 545.2353787648251Q2031.5331198492395 551.9221320451175 2036.1798467050362 556.1608536160145Q2040.8492405211045 560.4222421471836 2048.828010536911 560.4222421471836L2048.828010536911 560.4222421471836Q2055.3560950952974 560.4222421471836 2060.3428263551764 557.3168685898954Q2065.3295576150554 554.2114950326072 2068.1855946093497 548.8167584878291Q2071.0416316036444 543.4446889033231 2071.0416316036444 536.4179312189483L2071.0416316036444 536.4179312189483L2071.0416316036444 517.8083568354912Q2071.0416316036444 507.6988925541002 2066.9615787546522 503.21083442020915Q2062.8815259056605 498.72277628631815 2053.565405233796 498.72277628631815L2053.565405233796 498.72277628631815Q2047.8533312452073 498.72277628631815 2042.1412572566187 500.19612870400965Q2036.42918326803 501.66948112170115 2030.0597674315482 504.9335234008946L2030.0597674315482 504.9335234008946Q2027.7930714043305 506.06687141450345 2026.1610502647336 505.6588661296043Q2024.5290291251372 505.2508608447051 2023.5316828731611 503.93617714891883Q2022.5570035814576 502.64416041340473 2022.3983348595525 500.92147143271933Q2022.2396661376474 499.221449412306 2023.1236775882621 497.5894282727093Q2024.0303559991494 495.95740713311255 2025.9797145825564 494.96006088113677L2025.9797145825564 494.96006088113677Q2033.1651409888364 491.3786811581328 2040.1918986732112 489.74666001853603Q2047.195989397314 488.11463887893933 2053.565405233796 488.11463887893933L2053.565405233796 488.11463887893933Q2063.856205197364 488.11463887893933 2070.542958477656 491.4693489992215Q2077.2297117579483 494.8013921592315 2080.493754037142 501.57881328061245Q2083.7577963163353 508.35623440199333 2083.7577963163353 518.9643718093721L2083.7577963163353 518.9643718093721L2083.7577963163353 563.1876113003893Q2083.7577963163353 566.4516535795829 2082.2164430178273 568.2423434410848Q2080.652422759047 570.0330333025868 2077.728384883936 570.0330333025868L2077.728384883936 570.0330333025868Q2074.623011326648 570.0330333025868 2072.9909901870515 568.2423434410848Q2071.3589690474546 566.4516535795829 2071.3589690474546 563.1876113003893L2071.3589690474546 563.1876113003893L2071.3589690474546 550.4487796274259L2072.832321465146 550.4487796274259Q2071.5176377693597 556.6595267420023 2067.8455902052674 561.0569170348047Q2064.1735426411747 565.4769742878791 2058.801473056669 567.9250059972742Q2053.406736511891 570.3730377066693 2046.7199832315982 570.3730377066693ZM2138.4305044928265 570.3730377066693L2138.4305044928265 570.3730377066693Q2127.8223670854472 570.3730377066693 2119.9115979504577 565.3183055659739Q2112.0008288154677 560.2409064650062 2107.671439403482 551.0381205945025Q2103.3420499914964 541.8126677637265 2103.3420499914964 529.2325048126683L2103.3420499914964 529.2325048126683Q2103.3420499914964 516.516340099977 2107.671439403482 507.290887269201Q2112.0008288154677 498.06543443842503 2119.9115979504577 493.10137013881825Q2127.8223670854472 488.11463887893933 2138.4305044928265 488.11463887893933L2138.4305044928265 488.11463887893933Q2149.1973106221103 488.11463887893933 2156.881410154378 493.5093754237175Q2164.542842726374 498.88144500822335 2167.149543157674 508.01622999791067L2167.149543157674 508.01622999791067L2165.358853296172 508.01622999791067L2165.358853296172 459.39560021409113Q2165.358853296172 456.1315579348977 2167.081542276858 454.40886895421227Q2168.781564297271 452.708846933799 2172.0456065764647 452.708846933799L2172.0456065764647 452.708846933799Q2175.150980133753 452.708846933799 2176.873669114438 454.40886895421227Q2178.5736911348513 456.1315579348977 2178.5736911348513 459.39560021409113L2178.5736911348513 459.39560021409113L2178.5736911348513 563.1876113003893Q2178.5736911348513 566.4516535795829 2176.941669995255 568.2423434410848Q2175.309648855658 570.0330333025868 2172.0456065764647 570.0330333025868L2172.0456065764647 570.0330333025868Q2168.962899979448 570.0330333025868 2167.240210998763 568.2423434410848Q2165.5175220180777 566.4516535795829 2165.5175220180777 563.1876113003893L2165.5175220180777 563.1876113003893L2165.5175220180777 547.6834104742203L2167.3308788398517 549.9727734617102Q2164.7015114482792 559.2662271733027 2156.9494110351948 564.819632439986Q2149.1973106221103 570.3730377066693 2138.4305044928265 570.3730377066693ZM2141.2185406063036 559.7649002992905L2141.2185406063036 559.7649002992905Q2148.562635734489 559.7649002992905 2154.0933740409005 556.1608536160145Q2159.646779307584 552.5794738930106 2162.6614850237834 545.7340518908131Q2165.698857700255 538.8659629283434 2165.698857700255 529.2325048126683L2165.698857700255 529.2325048126683Q2165.698857700255 514.3856458343923 2159.0801053007795 506.5655445404913Q2152.4613529013036 498.72277628631815 2141.2185406063036 498.72277628631815L2141.2185406063036 498.72277628631815Q2133.693109795941 498.72277628631815 2128.2303723703467 502.2361551285056Q2122.767634944752 505.749533970693 2119.7529292285526 512.5042881318018Q2116.7382235123528 519.2817092531826 2116.7382235123528 529.2325048126683L2116.7382235123528 529.2325048126683Q2116.7382235123528 543.9206950690389 2123.424976792645 551.8541311643008Q2130.111730072937 559.7649002992905 2141.2185406063036 559.7649002992905ZM2239.139808982108 570.3730377066693L2239.139808982108 570.3730377066693Q2226.55964603105 570.3730377066693 2217.5155288824512 565.3863064467905Q2208.4487447735805 560.4222421471836 2203.4620135137015 551.2647901972242Q2198.497949214095 542.1300052075369 2198.497949214095 529.4138404948458L2198.497949214095 529.4138404948458Q2198.497949214095 516.9923462656927 2203.3940126328853 507.7895603951889Q2208.2900760516754 498.5641075644129 2216.8581870345583 493.32803974154Q2225.4262980174412 488.11463887893933 2236.691777272713 488.11463887893933L2236.691777272713 488.11463887893933Q2244.670547288519 488.11463887893933 2251.039963125001 490.8120071513284Q2257.409378961483 493.5093754237175 2261.897437095374 498.5641075644129Q2266.385495229265 503.6188397051083 2268.7428590975715 510.8042661113884Q2271.12288992615 517.9896925176686 2271.12288992615 526.9658087854506L2271.12288992615 526.9658087854506Q2271.12288992615 529.5725092167509 2269.6495375084583 530.7965250714485Q2268.176185090767 532.020540926146 2265.410815937561 532.020540926146L2265.410815937561 532.020540926146L2208.6074134954856 532.020540926146L2208.6074134954856 523.3617621021745L2262.3054423802732 523.3617621021745L2259.698741948973 525.4924563677591Q2259.698741948973 516.6750088218823 2257.092041517672 510.5549295483945Q2254.4626741261 504.4348502749067 2249.498609826493 501.17080799571323Q2244.511878566614 497.90676571651977 2237.0091147165235 497.90676571651977L2237.0091147165235 497.90676571651977Q2228.6903402966345 497.90676571651977 2222.8875984669576 501.73748200251765Q2217.1075235975522 505.5681982885156 2214.160818762169 512.3456194098965Q2211.2141139267865 519.1230405312774 2211.2141139267865 528.0991567990594L2211.2141139267865 528.0991567990594L2211.2141139267865 529.073836090763Q2211.2141139267865 544.1020307512163 2218.4902081741548 551.9221320451175Q2225.743635461252 559.7649002992905 2239.139808982108 559.7649002992905L2239.139808982108 559.7649002992905Q2244.670547288519 559.7649002992905 2250.155951674386 558.2915478815991Q2255.6186890999807 556.8181954639076 2260.832089962582 553.3954844628088L2260.832089962582 553.3954844628088Q2263.121452950071 551.9221320451175 2265.002810652662 552.012799886206Q2266.8841683552528 552.0808007670225 2268.0175163688614 553.1461478998149Q2269.1508643824704 554.2114950326072 2269.5588696673694 555.7528483311153Q2269.966874952269 557.3168685898954 2269.2415322235593 559.1075584513974Q2268.5161894948496 560.8982483128993 2266.385495229265 562.2129320086857L2266.385495229265 562.2129320086857Q2260.9907586844865 566.1343161357722 2253.6466635563015 568.2423434410848Q2246.302568428116 570.3730377066693 2239.139808982108 570.3730377066693ZM2316.978150556764 570.3730377066693L2316.978150556764 570.3730377066693Q2309.6340554285784 570.3730377066693 2302.199292459304 568.5823478451673Q2294.7871964503024 566.7689910233933 2288.417780613821 562.3716007305909L2288.417780613821 562.3716007305909Q2286.785759474224 561.2382527169821 2286.1284176263307 559.6742324582019Q2285.471075778438 558.1328791596939 2285.7204123414317 556.5688589009137Q2285.9697489044256 555.0275056024057 2287.035096037218 553.8941575887968Q2288.1004431700103 552.7381426149157 2289.641796468518 552.4888060519218Q2291.1831497670264 552.2621364491999 2293.1551753107055 553.2368157409037L2293.1551753107055 553.2368157409037Q2299.5245911471875 557.1581998679902 2305.463334738498 558.6995531664983Q2311.4247452900804 560.2409064650062 2317.295488000574 560.2409064650062L2317.295488000574 560.2409064650062Q2326.6116086724387 560.2409064650062 2331.349003369324 556.8181954639076Q2336.0637311059368 553.3954844628088 2336.0637311059368 547.5247417523151L2336.0637311059368 547.5247417523151Q2336.0637311059368 542.9460157773353 2332.9810245089207 540.2486475049462Q2329.875650951632 537.5739461928295 2323.1888976713403 536.1005937751379L2323.1888976713403 536.1005937751379L2308.3193717327918 532.8365514959444Q2298.0512387294957 530.7058572303597 2293.0645074696167 525.4924563677591Q2288.1004431700103 520.2563885448862 2288.1004431700103 511.93761412499725L2288.1004431700103 511.93761412499725Q2288.1004431700103 504.59351899681195 2291.931159456008 499.28945029312257Q2295.761875742006 493.9853815894332 2302.788633426381 491.06134371432233Q2309.7927241504835 488.11463887893933 2319.108844822348 488.11463887893933L2319.108844822348 488.11463887893933Q2326.2716042683564 488.11463887893933 2332.7316879459263 489.99599658153Q2339.169104663225 491.8773542841207 2344.405172486098 495.95740713311255L2344.405172486098 495.95740713311255Q2346.0371936256943 497.0907551467214 2346.603867632499 498.63210844522945Q2347.1705416393033 500.19612870400965 2346.7625363544043 501.73748200251765Q2346.354531069505 503.30150226129786 2345.221183055896 504.344182433818Q2344.065168082015 505.40952956661033 2342.4331469424183 505.5681982885156Q2340.801125802822 505.749533970693 2339.01043594132 504.59351899681195L2339.01043594132 504.59351899681195Q2334.1143725225293 501.3294767176185 2329.059640381834 499.78812341911043Q2324.0049082411388 498.22410316033023 2319.108844822348 498.22410316033023L2319.108844822348 498.22410316033023Q2309.9513928723886 498.22410316033023 2305.236665135776 501.82814984360635Q2300.4992704388915 505.40952956661033 2300.4992704388915 511.28027227710413L2300.4992704388915 511.28027227710413Q2300.4992704388915 515.8589982520839 2303.423308314002 518.8057030874669Q2306.3700131493847 521.7297409625777 2312.580760263961 523.0444246583639L2312.580760263961 523.0444246583639L2327.4276192422376 526.1497982156523Q2338.035756649616 528.4164942428699 2343.3398253533055 533.4032255027489Q2348.643894056995 538.3899567626277 2348.643894056995 546.867399904422L2348.643894056995 546.867399904422Q2348.643894056995 557.6342060337059 2339.9851152330234 564.0036218701877Q2331.349003369324 570.3730377066693 2316.978150556764 570.3730377066693Z " fill="#fcf5ed" transform="matrix(0.372555423379769,0,0,0.372555423379769,0,104.62841660516769)"/></g></svg>